STARTFONT 2.1
COMMENT Created by fdbbdf
FONT helvetica14b
SIZE 14 78 78
FONTBOUNDINGBOX 17 17 -1 -5
STARTPROPERTIES 4
Ownership "  Copyright (c) 1984 Adobe Systems, Inc.  allchars 75orig/HB16.bits  WIDTHERR -102 -126  GUIDELINES -4 0 9 12 DONE  TOTAL BITMAP BYTES 3007  "
FONT_ASCENT 12
FONT_DESCENT 5
DEFAULT_CHAR 32
ENDPROPERTIES
CHARS 95
STARTCHAR sp
ENCODING -1 32
SWIDTH 0 0
DWIDTH 5 0
BBX 1 1 0 -1
BITMAP
0000
ENDCHAR
STARTCHAR !
ENCODING -1 33
SWIDTH 0 0
DWIDTH 5 0
BBX 4 12 1 -1
BITMAP
7000
7000
7000
7000
7000
7000
7000
7000
7000
0000
7000
7000
ENDCHAR
STARTCHAR "
ENCODING -1 34
SWIDTH 0 0
DWIDTH 7 0
BBX 5 4 1 7
BITMAP
d800
d800
d800
d800
ENDCHAR
STARTCHAR #
ENCODING -1 35
SWIDTH 0 0
DWIDTH 11 0
BBX 9 12 1 -2
BITMAP
1b00
1b00
1b00
7f80
7f80
3600
3600
ff00
ff00
6c00
6c00
6c00
ENDCHAR
STARTCHAR $
ENCODING -1 36
SWIDTH 0 0
DWIDTH 10 0
BBX 8 15 1 -3
BITMAP
1800
7e00
ff00
db00
db00
f800
7c00
3e00
1f00
db00
db00
ff00
7e00
1800
1800
ENDCHAR
STARTCHAR %
ENCODING -1 37
SWIDTH 0 0
DWIDTH 15 0
BBX 13 12 1 -1
BITMAP
78c0
fcc0
cd80
cd80
ff00
7b00
06f0
07f8
0d98
0d98
19f8
18f0
ENDCHAR
STARTCHAR &
ENCODING -1 38
SWIDTH 0 0
DWIDTH 11 0
BBX 9 12 1 -1
BITMAP
3c00
7e00
6600
6600
7c00
3800
7d80
ef80
c700
c600
ff80
7d80
ENDCHAR
STARTCHAR '
ENCODING -1 39
SWIDTH 0 0
DWIDTH 4 0
BBX 2 4 1 7
BITMAP
c000
c000
4000
8000
ENDCHAR
STARTCHAR (
ENCODING -1 40
SWIDTH 0 0
DWIDTH 6 0
BBX 4 16 1 -5
BITMAP
3000
7000
6000
6000
e000
c000
c000
c000
c000
c000
c000
e000
6000
6000
7000
3000
ENDCHAR
STARTCHAR )
ENCODING -1 41
SWIDTH 0 0
DWIDTH 6 0
BBX 4 16 1 -5
BITMAP
c000
e000
6000
6000
7000
3000
3000
3000
3000
3000
3000
7000
6000
6000
e000
c000
ENDCHAR
STARTCHAR *
ENCODING -1 42
SWIDTH 0 0
DWIDTH 7 0
BBX 5 5 1 6
BITMAP
a800
f800
7000
f800
a800
ENDCHAR
STARTCHAR +
ENCODING -1 43
SWIDTH 0 0
DWIDTH 10 0
BBX 8 9 1 1
BITMAP
0000
1800
1800
1800
ff00
ff00
1800
1800
1800
ENDCHAR
STARTCHAR ,
ENCODING -1 44
SWIDTH 0 0
DWIDTH 4 0
BBX 2 4 1 -3
BITMAP
c000
c000
4000
8000
ENDCHAR
STARTCHAR -
ENCODING -1 45
SWIDTH 0 0
DWIDTH 8 0
BBX 6 2 1 4
BITMAP
fc00
fc00
ENDCHAR
STARTCHAR .
ENCODING -1 46
SWIDTH 0 0
DWIDTH 4 0
BBX 2 2 1 -1
BITMAP
c000
c000
ENDCHAR
STARTCHAR /
ENCODING -1 47
SWIDTH 0 0
DWIDTH 5 0
BBX 4 12 0 -1
BITMAP
3000
3000
3000
7000
6000
6000
6000
6000
e000
c000
c000
c000
ENDCHAR
STARTCHAR 0
ENCODING -1 48
SWIDTH 0 0
DWIDTH 11 0
BBX 9 12 1 -1
BITMAP
3e00
7f00
7700
e380
e380
e380
e380
e380
e380
7700
7f00
3e00
ENDCHAR
STARTCHAR 1
ENCODING -1 49
SWIDTH 0 0
DWIDTH 8 0
BBX 6 12 1 -1
BITMAP
1c00
3c00
fc00
fc00
1c00
1c00
1c00
1c00
1c00
1c00
1c00
1c00
ENDCHAR
STARTCHAR 2
ENCODING -1 50
SWIDTH 0 0
DWIDTH 9 0
BBX 8 12 1 -1
BITMAP
7e00
ff00
e700
e700
0700
0f00
1e00
3c00
7800
f000
ff00
ff00
ENDCHAR
STARTCHAR 3
ENCODING -1 51
SWIDTH 0 0
DWIDTH 10 0
BBX 8 12 1 -1
BITMAP
7e00
ff00
e700
e700
0700
1e00
1f00
0700
e700
e700
ff00
7e00
ENDCHAR
STARTCHAR 4
ENCODING -1 52
SWIDTH 0 0
DWIDTH 11 0
BBX 9 12 1 -1
BITMAP
0f00
1f00
3f00
3700
7700
6700
e700
ff80
ff80
0700
0700
0700
ENDCHAR
STARTCHAR 5
ENCODING -1 53
SWIDTH 0 0
DWIDTH 10 0
BBX 8 12 1 -1
BITMAP
7e00
7e00
e000
e000
fc00
fe00
0f00
0700
0700
ef00
fe00
7c00
ENDCHAR
STARTCHAR 6
ENCODING -1 54
SWIDTH 0 0
DWIDTH 10 0
BBX 8 12 1 -1
BITMAP
3e00
7f00
e700
e000
fc00
fe00
e700
e700
e700
e700
7e00
3c00
ENDCHAR
STARTCHAR 7
ENCODING -1 55
SWIDTH 0 0
DWIDTH 10 0
BBX 8 12 1 -1
BITMAP
ff00
ff00
0700
0e00
0e00
1c00
1c00
1c00
3800
3800
3800
3800
ENDCHAR
STARTCHAR 8
ENCODING -1 56
SWIDTH 0 0
DWIDTH 10 0
BBX 8 12 1 -1
BITMAP
7e00
ff00
e700
e700
e700
7e00
ff00
e700
e700
e700
ff00
7e00
ENDCHAR
STARTCHAR 9
ENCODING -1 57
SWIDTH 0 0
DWIDTH 10 0
BBX 8 12 1 -1
BITMAP
3c00
7e00
e700
e700
e700
e700
7f00
3f00
0700
e700
fe00
7c00
ENDCHAR
STARTCHAR :
ENCODING -1 58
SWIDTH 0 0
DWIDTH 4 0
BBX 2 8 1 -1
BITMAP
c000
c000
0000
0000
0000
0000
c000
c000
ENDCHAR
STARTCHAR ;
ENCODING -1 59
SWIDTH 0 0
DWIDTH 4 0
BBX 2 10 1 -3
BITMAP
c000
c000
0000
0000
0000
0000
c000
c000
4000
8000
ENDCHAR
STARTCHAR <
ENCODING -1 60
SWIDTH 0 0
DWIDTH 10 0
BBX 8 8 1 1
BITMAP
0300
0f00
3c00
e000
e000
3c00
0f00
0300
ENDCHAR
STARTCHAR =
ENCODING -1 61
SWIDTH 0 0
DWIDTH 9 0
BBX 7 5 1 2
BITMAP
fe00
fe00
0000
fe00
fe00
ENDCHAR
STARTCHAR >
ENCODING -1 62
SWIDTH 0 0
DWIDTH 10 0
BBX 8 8 1 1
BITMAP
c000
f000
3c00
0700
0700
3c00
f000
c000
ENDCHAR
STARTCHAR ?
ENCODING -1 63
SWIDTH 0 0
DWIDTH 10 0
BBX 8 12 1 -1
BITMAP
7e00
ff00
e700
e700
0700
0e00
1c00
1c00
1c00
0000
1c00
1c00
ENDCHAR
STARTCHAR @
ENCODING -1 64
SWIDTH 0 0
DWIDTH 15 0
BBX 13 14 1 -3
BITMAP
0fe0
3830
6018
47c8
ccc8
9cc8
9998
9990
9990
dfb0
4ee0
6000
3830
0fe0
ENDCHAR
STARTCHAR A
ENCODING -1 65
SWIDTH 0 0
DWIDTH 13 0
BBX 11 12 1 -1
BITMAP
0e00
0e00
1f00
1f00
3b80
3b80
3180
7fc0
7fc0
e0e0
e0e0
e0e0
ENDCHAR
STARTCHAR B
ENCODING -1 66
SWIDTH 0 0
DWIDTH 11 0
BBX 9 12 1 -1
BITMAP
fe00
ff00
e380
e380
e380
ff00
ff80
e380
e380
e380
ff00
fe00
ENDCHAR
STARTCHAR C
ENCODING -1 67
SWIDTH 0 0
DWIDTH 11 0
BBX 9 12 1 -1
BITMAP
3e00
7f00
f780
e380
e000
e000
e000
e000
e380
f780
7f00
3e00
ENDCHAR
STARTCHAR D
ENCODING -1 68
SWIDTH 0 0
DWIDTH 11 0
BBX 9 12 1 -1
BITMAP
fe00
ff00
e780
e380
e380
e380
e380
e380
e380
e780
ff00
fe00
ENDCHAR
STARTCHAR E
ENCODING -1 69
SWIDTH 0 0
DWIDTH 10 0
BBX 8 12 1 -1
BITMAP
ff00
ff00
e000
e000
e000
ff00
ff00
e000
e000
e000
ff00
ff00
ENDCHAR
STARTCHAR F
ENCODING -1 70
SWIDTH 0 0
DWIDTH 10 0
BBX 8 12 1 -1
BITMAP
ff00
ff00
e000
e000
e000
fe00
fe00
e000
e000
e000
e000
e000
ENDCHAR
STARTCHAR G
ENCODING -1 71
SWIDTH 0 0
DWIDTH 12 0
BBX 10 12 1 -1
BITMAP
3f00
7f80
73c0
e1c0
e000
e000
e7c0
e7c0
e1c0
73c0
7fc0
3ec0
ENDCHAR
STARTCHAR H
ENCODING -1 72
SWIDTH 0 0
DWIDTH 11 0
BBX 9 12 1 -1
BITMAP
e380
e380
e380
e380
e380
ff80
ff80
e380
e380
e380
e380
e380
ENDCHAR
STARTCHAR I
ENCODING -1 73
SWIDTH 0 0
DWIDTH 5 0
BBX 3 12 1 -1
BITMAP
e000
e000
e000
e000
e000
e000
e000
e000
e000
e000
e000
e000
ENDCHAR
STARTCHAR J
ENCODING -1 74
SWIDTH 0 0
DWIDTH 9 0
BBX 7 12 1 -1
BITMAP
0e00
0e00
0e00
0e00
0e00
0e00
0e00
ee00
ee00
ee00
fe00
7c00
ENDCHAR
STARTCHAR K
ENCODING -1 75
SWIDTH 0 0
DWIDTH 11 0
BBX 9 12 1 -1
BITMAP
e180
e380
e700
ee00
fc00
f800
f800
fc00
ee00
e700
e380
e180
ENDCHAR
STARTCHAR L
ENCODING -1 76
SWIDTH 0 0
DWIDTH 10 0
BBX 8 12 1 -1
BITMAP
e000
e000
e000
e000
e000
e000
e000
e000
e000
e000
ff00
ff00
ENDCHAR
STARTCHAR M
ENCODING -1 77
SWIDTH 0 0
DWIDTH 15 0
BBX 13 12 1 -1
BITMAP
e038
e038
f078
f078
f8f8
f8f8
fdf8
edb8
efb8
e738
e738
e238
ENDCHAR
STARTCHAR N
ENCODING -1 78
SWIDTH 0 0
DWIDTH 11 0
BBX 9 12 1 -1
BITMAP
c380
e380
e380
f380
fb80
ff80
ff80
ef80
e780
e380
e380
e380
ENDCHAR
STARTCHAR O
ENCODING -1 79
SWIDTH 0 0
DWIDTH 12 0
BBX 10 12 1 -1
BITMAP
3f00
7f80
7380
e1c0
e1c0
e1c0
e1c0
e1c0
e1c0
7380
7f80
3f00
ENDCHAR
STARTCHAR P
ENCODING -1 80
SWIDTH 0 0
DWIDTH 11 0
BBX 9 12 1 -1
BITMAP
fe00
ff00
e780
e380
e380
e780
ff00
fe00
e000
e000
e000
e000
ENDCHAR
STARTCHAR Q
ENCODING -1 81
SWIDTH 0 0
DWIDTH 12 0
BBX 10 12 1 -1
BITMAP
3f00
7f80
7380
e1c0
e1c0
e1c0
e1c0
edc0
efc0
7380
7fc0
3ec0
ENDCHAR
STARTCHAR R
ENCODING -1 82
SWIDTH 0 0
DWIDTH 11 0
BBX 9 12 1 -1
BITMAP
fe00
ff80
e780
e380
e380
e780
ff00
ff00
e780
e380
e380
e380
ENDCHAR
STARTCHAR S
ENCODING -1 83
SWIDTH 0 0
DWIDTH 11 0
BBX 9 12 1 -1
BITMAP
3e00
7f00
f780
e380
f000
fe00
3f00
0780
e380
f780
7f00
3e00
ENDCHAR
STARTCHAR T
ENCODING -1 84
SWIDTH 0 0
DWIDTH 12 0
BBX 11 12 1 -1
BITMAP
ffe0
ffe0
0e00
0e00
0e00
0e00
0e00
0e00
0e00
0e00
0e00
0e00
ENDCHAR
STARTCHAR U
ENCODING -1 85
SWIDTH 0 0
DWIDTH 11 0
BBX 9 12 1 -1
BITMAP
e380
e380
e380
e380
e380
e380
e380
e380
e380
f780
7f00
3e00
ENDCHAR
STARTCHAR V
ENCODING -1 86
SWIDTH 0 0
DWIDTH 11 0
BBX 10 12 1 -1
BITMAP
e1c0
e1c0
e1c0
7380
7380
7380
3300
3f00
3f00
1e00
1e00
0c00
ENDCHAR
STARTCHAR W
ENCODING -1 87
SWIDTH 0 0
DWIDTH 16 0
BBX 15 12 1 -1
BITMAP
e38e
e38e
e38e
f7de
77dc
77dc
7efc
7efc
7c7c
3c78
3838
3838
ENDCHAR
STARTCHAR X
ENCODING -1 88
SWIDTH 0 0
DWIDTH 12 0
BBX 10 12 1 -1
BITMAP
c0c0
e1c0
f3c0
7f80
3f00
1e00
1e00
3f00
7f80
f3c0
e1c0
c0c0
ENDCHAR
STARTCHAR Y
ENCODING -1 89
SWIDTH 0 0
DWIDTH 12 0
BBX 11 12 1 -1
BITMAP
e0e0
f1e0
71c0
7bc0
3f80
1f00
1f00
0e00
0e00
0e00
0e00
0e00
ENDCHAR
STARTCHAR Z
ENCODING -1 90
SWIDTH 0 0
DWIDTH 11 0
BBX 9 12 1 -1
BITMAP
ff80
ff80
0780
0f00
0f00
1e00
3c00
3c00
7800
7800
ff80
ff80
ENDCHAR
STARTCHAR [
ENCODING -1 91
SWIDTH 0 0
DWIDTH 6 0
BBX 4 16 1 -5
BITMAP
f000
f000
c000
c000
c000
c000
c000
c000
c000
c000
c000
c000
c000
c000
f000
f000
ENDCHAR
STARTCHAR \
ENCODING -1 92
SWIDTH 0 0
DWIDTH 7 0
BBX 5 12 1 -1
BITMAP
c000
c000
c000
6000
6000
6000
3000
3000
3000
1800
1800
1800
ENDCHAR
STARTCHAR ]
ENCODING -1 93
SWIDTH 0 0
DWIDTH 6 0
BBX 4 16 1 -5
BITMAP
f000
f000
3000
3000
3000
3000
3000
3000
3000
3000
3000
3000
3000
3000
f000
f000
ENDCHAR
STARTCHAR ^
ENCODING -1 94
SWIDTH 0 0
DWIDTH 8 0
BBX 6 7 1 4
BITMAP
3000
3000
7800
7800
cc00
cc00
cc00
ENDCHAR
STARTCHAR _
ENCODING -1 95
SWIDTH 0 0
DWIDTH 9 0
BBX 10 2 -1 -5
BITMAP
ffc0
ffc0
ENDCHAR
STARTCHAR `
ENCODING -1 96
SWIDTH 0 0
DWIDTH 4 0
BBX 2 4 1 7
BITMAP
4000
8000
c000
c000
ENDCHAR
STARTCHAR a
ENCODING -1 97
SWIDTH 0 0
DWIDTH 9 0
BBX 8 9 1 -1
BITMAP
7e00
ff00
e700
0f00
7f00
f700
e700
ff00
7700
ENDCHAR
STARTCHAR b
ENCODING -1 98
SWIDTH 0 0
DWIDTH 10 0
BBX 9 12 1 -1
BITMAP
e000
e000
e000
ee00
ff00
f780
e380
e380
e380
f780
ff00
ee00
ENDCHAR
STARTCHAR c
ENCODING -1 99
SWIDTH 0 0
DWIDTH 9 0
BBX 8 9 1 -1
BITMAP
3c00
7e00
e700
e700
e000
e700
e700
7e00
3c00
ENDCHAR
STARTCHAR d
ENCODING -1 100
SWIDTH 0 0
DWIDTH 10 0
BBX 9 12 1 -1
BITMAP
0380
0380
0380
3b80
7f80
f780
e380
e380
e380
f780
7f80
3b80
ENDCHAR
STARTCHAR e
ENCODING -1 101
SWIDTH 0 0
DWIDTH 9 0
BBX 8 9 1 -1
BITMAP
3c00
7e00
e700
ff00
ff00
e000
e700
7e00
3c00
ENDCHAR
STARTCHAR f
ENCODING -1 102
SWIDTH 0 0
DWIDTH 6 0
BBX 5 12 1 -1
BITMAP
3800
7800
7000
f800
f800
7000
7000
7000
7000
7000
7000
7000
ENDCHAR
STARTCHAR g
ENCODING -1 103
SWIDTH 0 0
DWIDTH 10 0
BBX 9 13 1 -5
BITMAP
3b80
7f80
f780
e380
e380
e380
f780
7f80
3f80
0380
f780
7f00
3e00
ENDCHAR
STARTCHAR h
ENCODING -1 104
SWIDTH 0 0
DWIDTH 9 0
BBX 8 12 1 -1
BITMAP
e000
e000
e000
ee00
ff00
e700
e700
e700
e700
e700
e700
e700
ENDCHAR
STARTCHAR i
ENCODING -1 105
SWIDTH 0 0
DWIDTH 4 0
BBX 3 12 1 -1
BITMAP
e000
e000
0000
e000
e000
e000
e000
e000
e000
e000
e000
e000
ENDCHAR
STARTCHAR j
ENCODING -1 106
SWIDTH 0 0
DWIDTH 4 0
BBX 4 16 0 -5
BITMAP
7000
7000
0000
7000
7000
7000
7000
7000
7000
7000
7000
7000
7000
7000
e000
e000
ENDCHAR
STARTCHAR k
ENCODING -1 107
SWIDTH 0 0
DWIDTH 9 0
BBX 8 12 1 -1
BITMAP
e000
e000
e000
e300
e700
ee00
fc00
f800
fc00
ee00
e700
e300
ENDCHAR
STARTCHAR l
ENCODING -1 108
SWIDTH 0 0
DWIDTH 4 0
BBX 3 12 1 -1
BITMAP
e000
e000
e000
e000
e000
e000
e000
e000
e000
e000
e000
e000
ENDCHAR
STARTCHAR m
ENCODING -1 109
SWIDTH 0 0
DWIDTH 14 0
BBX 13 9 1 -1
BITMAP
def0
fff8
e738
e738
e738
e738
e738
e738
e738
ENDCHAR
STARTCHAR n
ENCODING -1 110
SWIDTH 0 0
DWIDTH 9 0
BBX 8 9 1 -1
BITMAP
ee00
ff00
e700
e700
e700
e700
e700
e700
e700
ENDCHAR
STARTCHAR o
ENCODING -1 111
SWIDTH 0 0
DWIDTH 10 0
BBX 9 9 1 -1
BITMAP
3e00
7f00
f780
e380
e380
e380
f780
7f00
3e00
ENDCHAR
STARTCHAR p
ENCODING -1 112
SWIDTH 0 0
DWIDTH 10 0
BBX 9 13 1 -5
BITMAP
ee00
ff00
f780
e380
e380
e380
f780
ff00
ee00
e000
e000
e000
e000
ENDCHAR
STARTCHAR q
ENCODING -1 113
SWIDTH 0 0
DWIDTH 10 0
BBX 9 13 1 -5
BITMAP
3b80
7f80
f780
e380
e380
e380
f780
7f80
3b80
0380
0380
0380
0380
ENDCHAR
STARTCHAR r
ENCODING -1 114
SWIDTH 0 0
DWIDTH 7 0
BBX 6 9 1 -1
BITMAP
ec00
fc00
f000
e000
e000
e000
e000
e000
e000
ENDCHAR
STARTCHAR s
ENCODING -1 115
SWIDTH 0 0
DWIDTH 8 0
BBX 7 9 1 -1
BITMAP
7c00
fe00
e600
f000
7c00
1e00
ce00
fe00
7c00
ENDCHAR
STARTCHAR t
ENCODING -1 116
SWIDTH 0 0
DWIDTH 6 0
BBX 5 11 1 -1
BITMAP
7000
7000
f800
f800
7000
7000
7000
7000
7000
7800
3800
ENDCHAR
STARTCHAR u
ENCODING -1 117
SWIDTH 0 0
DWIDTH 9 0
BBX 8 9 1 -1
BITMAP
e700
e700
e700
e700
e700
e700
e700
ff00
7700
ENDCHAR
STARTCHAR v
ENCODING -1 118
SWIDTH 0 0
DWIDTH 10 0
BBX 9 9 1 -1
BITMAP
e380
e380
e380
7700
7700
3e00
3e00
1c00
1c00
ENDCHAR
STARTCHAR w
ENCODING -1 119
SWIDTH 0 0
DWIDTH 13 0
BBX 12 9 1 -1
BITMAP
e670
e670
ef70
ef70
7fe0
7fe0
79e0
30c0
30c0
ENDCHAR
STARTCHAR x
ENCODING -1 120
SWIDTH 0 0
DWIDTH 10 0
BBX 9 9 1 -1
BITMAP
e380
f780
7f00
3e00
1c00
3e00
7f00
f780
e380
ENDCHAR
STARTCHAR y
ENCODING -1 121
SWIDTH 0 0
DWIDTH 10 0
BBX 9 13 1 -5
BITMAP
e380
e380
e380
7700
7700
7700
3e00
3e00
1c00
1c00
3800
f800
f000
ENDCHAR
STARTCHAR z
ENCODING -1 122
SWIDTH 0 0
DWIDTH 9 0
BBX 8 9 1 -1
BITMAP
ff00
ff00
0f00
1e00
3c00
7800
f000
ff00
ff00
ENDCHAR
STARTCHAR {
ENCODING -1 123
SWIDTH 0 0
DWIDTH 6 0
BBX 4 16 1 -5
BITMAP
3000
6000
6000
6000
6000
6000
6000
6000
e000
6000
6000
6000
6000
6000
6000
3000
ENDCHAR
STARTCHAR |
ENCODING -1 124
SWIDTH 0 0
DWIDTH 4 0
BBX 2 16 1 -5
BITMAP
c000
c000
c000
c000
c000
c000
c000
c000
c000
c000
c000
c000
c000
c000
c000
c000
ENDCHAR
STARTCHAR }
ENCODING -1 125
SWIDTH 0 0
DWIDTH 6 0
BBX 4 16 1 -5
BITMAP
c000
6000
6000
6000
6000
6000
6000
6000
7000
6000
6000
6000
6000
6000
6000
c000
ENDCHAR
STARTCHAR ~
ENCODING -1 126
SWIDTH 0 0
DWIDTH 11 0
BBX 9 3 1 2
BITMAP
7980
ff80
cf00
ENDCHAR
ENDFONT
